<svg xmlns="http://www.w3.org/2000/svg" viewBox="0 0 1919.05 1810.64"><title>Donna</title><g id="Livello_2" data-name="Livello 2"><g id="Livello_3" data-name="Livello 3"><path d="M1422.85,1809.8c-14.84-32.19-30.73-66.16-50.31-107.57-18.46-39-28-58.76-45.11-69.39-9.52-5.94-21.79-10.64-29.49-24.29-8-14.09-6.2-29.13-5.21-36.44,15.92-117.58,36.43-161.35,36.43-161.35,88.92-185.2,173.22-288.85,189.55-319.88,1.92-3.65,23-25.39,35.78-35.78,20.54-16.68,50.33-17.7,62.67-17.35,107.79,3,121.45.44,171.55-2.82,8.72-.56,63.68.19,81.76-7.59,18.83-8.1,39.77-26.74,45.1-52,4.39-20.81-1.07-49.5-15.61-69.39-4.75-6.51-11.94-14.07-10.41-23.43,1.38-8.4,8.34-9.33,13.88-19.08,7-12.34,7.36-31-.87-42.51-7.6-10.59-20.51-16.53-25.16-18.42a.89.89,0,0,1-.13-1.59,68.13,68.13,0,0,0,14-11.21c10.9-11.61,12.47-33.51,3.47-45.11-4.93-6.37-8.57-3.87-18.21-11.28-11.1-8.54-22.66-24.46-19.09-36.43,2-6.67,7.16-7,20-16.49,10.19-7.53,26.06-19.24,33-36.43.79-2,9.3-24-.87-42.51-8.38-15.2-23.41-17-46-27.75-13.71-6.53-19-8-49.78-32.53-42.58-34-74-61.85-87.28-82.85-19.75-31.12-19.52-57.58-24.29-88.48,0,0-12.43-80.48-73.74-174.36C1568.22,103.23,1472.18,66.9,1403.77,41c-134.89-51-251.2-39.39-301-33.83,0,0-143.73,16-262,86.74-36.06,21.57-103,70-111,93.69-.4,1.2-2,6.25-6.07,7.81-11.84,4.5-32.8-24.74-39.9-33.83C656.74,127,617.36,111,560.59,87.87c-109.93-44.71-235.92-9.06-249-5.2-182.12,53.81-259,218.07-269.78,242-12.94,28.85-82.78,192.79,0,366.07,61.77,129.32,172,187.35,220.34,208.2,38,16.37,145.39,62.71,263.71,24.29,45.5-14.78,128.41-63.07,156.14-104.1,4.22-6.24,12.33-16.37,15.76-20.6a2.7,2.7,0,0,1,3.66-.52c5.93,4.17,18.73,15,24.17,21.55,40.34,48.36,82.85,80.68,175,147,4.88,3.51,13.09,16.22,17.35,24.29,25.13,47.53,26.9,76.23-17.35,163.73-43.88,86.8-51.92,112.89-109.3,193.67-127.21,179.1-186.65,311.82-213.39,353.92-26.87,42.3-39.37,82.44-50.32,107.57" fill="none" stroke="#fff" stroke-miterlimit="10" stroke-width="4"/></g></g></svg>